<?xml version="1.0" standalone="no"?>
<!DOCTYPE svg PUBLIC "-//W3C//DTD SVG 20010904//EN"
 "http://www.w3.org/TR/2001/REC-SVG-20010904/DTD/svg10.dtd">
<svg version="1.0" xmlns="http://www.w3.org/2000/svg"
 width="127.000000pt" height="127.000000pt" viewBox="0 0 127.000000 127.000000"
 preserveAspectRatio="xMidYMid meet">
<metadata>
Created by potrace 1.14, written by Peter Selinger 2001-2017
</metadata>
<g transform="translate(0.000000,127.000000) scale(0.100000,-0.100000)"
fill="#000000" stroke="none">
<path d="M134 1246 c-28 -13 -63 -39 -77 -58 -57 -75 -57 -70 -57 -545 0 -290
4 -452 11 -478 16 -58 65 -114 123 -141 l51 -24 438 0 c296 0 453 4 484 11 29
8 60 26 87 53 77 73 76 70 76 564 0 285 -4 451 -11 477 -15 55 -51 99 -107
132 l-47 28 -460 3 -460 2 -51 -24z"/>
</g>
</svg>
