<svg width="500" height="500" viewBox="0 0 500 500" fill="none" xmlns="http://www.w3.org/2000/svg">
<path fill-rule="evenodd" clip-rule="evenodd" d="M135.087 121.132V383.487L199.01 415.792V153.01L135.087 121.132ZM216.376 451.556C219.457 453.113 223.097 450.874 223.097 447.422V359.749L247.647 371.711L292.837 393.895C296.47 395.678 300.726 395.668 304.35 393.868L346.774 372.79L384.63 354.328C386.692 353.323 388 351.23 388 348.936L387.999 131.688L325.98 161.409L298.928 174.438L268.441 159.767L218.634 135.881L117.699 85.5451C114.62 84.0093 111 86.249 111 89.6903V395.453C111 397.2 111.983 398.799 113.543 399.587L216.376 451.556ZM258.411 350.162L285.167 363.858V194.547L224.023 165.179V333.407L258.411 350.162ZM336.01 351.221L309.254 364.93L309.254 196.22L368.081 167.955L368.082 335.58L336.01 351.221Z" fill="url(#paint0_linear_25_132)"/>
<path d="M387.74 132.008L356 147.5L225.5 85.5V58L387.74 132.008Z" fill="#D9D9D9"/>
<path d="M387.74 132.008L356 147.5L225.5 85.5V58L387.74 132.008Z" fill="url(#paint1_linear_25_132)"/>
<path d="M225.573 129.674L201.174 117.408L201.174 54.7728C201.174 51.1344 204.937 48.7142 208.248 50.2228L225.573 58.1171V129.674Z" fill="url(#paint2_linear_25_132)"/>
<defs>
<linearGradient id="paint0_linear_25_132" x1="31.3278" y1="500.77" x2="444.53" y2="398.077" gradientUnits="userSpaceOnUse">
<stop stop-color="#86DBAC"/>
<stop offset="0.46875" stop-color="#68C290"/>
<stop offset="1" stop-color="#41A26C"/>
</linearGradient>
<linearGradient id="paint1_linear_25_132" x1="212.5" y1="32" x2="283" y2="200" gradientUnits="userSpaceOnUse">
<stop stop-color="#56B380"/>
<stop offset="0.84375" stop-color="#3B9362"/>
</linearGradient>
<linearGradient id="paint2_linear_25_132" x1="218" y1="108.5" x2="207.5" y2="132.5" gradientUnits="userSpaceOnUse">
<stop stop-color="#4FAA78"/>
<stop offset="1" stop-color="#60BB89" stop-opacity="0.1"/>
</linearGradient>
</defs>
</svg>
