<svg width="203" height="203" viewBox="0 0 203 203" fill="none" xmlns="http://www.w3.org/2000/svg">
<g clip-path="url(#clip0_11_1128)">
<path d="M90.8467 0.000581246C68.5608 0.000581246 48.7613 14.299 41.8599 35.4033C34.7775 36.8579 28.0872 39.7989 22.2343 44.0304C16.3814 48.2619 11.5002 53.6869 7.91538 59.9445C-3.26175 79.1926 -0.709494 103.39 14.2642 119.888C9.64133 133.707 11.2279 148.829 18.6109 161.342C29.7196 180.658 52.0714 190.557 73.9441 185.951C78.733 191.336 84.6193 195.643 91.2103 198.582C97.8013 201.522 104.946 203.028 112.167 203C134.453 203 154.252 188.701 161.154 167.597C175.504 164.64 187.854 155.703 195.03 143.056C206.275 123.808 203.723 99.6099 188.752 83.1119V83.0437C191.035 76.2132 191.829 68.9757 191.079 61.8151C190.33 54.6545 188.054 47.7359 184.405 41.5221C173.294 22.274 150.94 12.3723 129.138 16.9785C124.327 11.6072 118.425 7.3159 111.824 4.38894C105.222 1.46197 98.072 -0.033852 90.8467 0.000581246ZM90.8467 13.2005L90.7782 13.2687C99.7478 13.2687 108.373 16.3622 115.272 22.0694C114.995 22.2058 114.443 22.5493 114.03 22.7563L73.4625 46.0601C71.3918 47.2293 70.1499 49.4289 70.1499 51.8355V106.554L52.6948 96.5188V51.285C52.6909 41.1952 56.7069 31.5164 63.8605 24.375C71.0141 17.2336 80.7202 13.216 90.8467 13.2005ZM139.716 29.1309C146.439 29.1181 153.046 30.8738 158.869 34.2206C164.692 37.5675 169.526 42.3868 172.881 48.1915C177.296 55.8912 178.951 64.8966 177.433 73.6267C177.156 73.4196 176.606 73.1468 176.259 72.9397L135.692 49.5653C134.672 48.9902 133.519 48.688 132.347 48.688C131.174 48.688 130.022 48.9902 129.001 49.5653L81.4639 76.9248V56.8509L120.721 34.234C126.493 30.8998 133.044 29.1389 139.716 29.1285V29.1309ZM39.3786 49.9088V97.9608C39.3786 100.367 40.6205 102.499 42.6911 103.736L90.1573 131.028L72.6313 141.131L33.4429 118.583C24.6851 113.526 18.2991 105.213 15.6865 95.469C13.074 85.7251 14.4484 75.3465 19.5081 66.6114C23.9715 58.9027 31.0011 52.9954 39.3786 49.9088ZM130.311 61.8006L169.568 84.3493C187.852 94.8673 194.059 118.103 183.503 136.321L183.571 136.389C179.088 144.089 172.05 150 163.701 153.026V104.971C163.701 102.565 162.459 100.365 160.388 99.1982L112.854 71.8363L130.311 61.8006ZM101.471 78.3693L121.481 89.9176V112.946L101.471 124.495L81.4639 112.946V89.9176L101.471 78.3693ZM132.932 96.5188L150.387 106.554V151.72C150.387 172.756 133.277 189.805 112.235 189.805V189.736C103.334 189.736 94.6408 186.643 87.8103 180.938C88.0866 180.802 88.7075 180.456 89.0522 180.249L129.619 156.945C131.69 155.776 133 153.576 132.93 151.17L132.932 96.5188ZM121.547 126.078V146.149L82.2902 168.698C64.0064 179.148 40.6865 172.961 30.1303 154.811H30.1987C25.7152 147.18 24.1261 138.106 25.6443 129.376C25.9205 129.583 26.473 129.856 26.8177 130.063L67.3849 153.437C68.4055 154.012 69.558 154.315 70.7305 154.315C71.903 154.315 73.0555 154.012 74.0761 153.437L121.547 126.078Z" fill="white"/>
</g>
<defs>
<clipPath id="clip0_11_1128">
<rect width="203" height="203" fill="white"/>
</clipPath>
</defs>
</svg>
