<svg width="977" height="962" viewBox="0 0 977 962" fill="none" xmlns="http://www.w3.org/2000/svg">
<g clip-path="url(#clip0_27_2)">
<path fill-rule="evenodd" clip-rule="evenodd" d="M374.329 168.188V476.746L449.51 514.74V205.68L374.329 168.188ZM469.934 556.803C473.557 558.634 477.839 556.001 477.839 551.941V448.828L506.713 462.896L560.876 489.485C564.509 491.269 568.765 491.259 572.389 489.458L623.297 464.165L668.413 442.163C670.475 441.158 671.783 439.064 671.783 436.77L671.783 180.602L598.841 215.557L567.025 230.882L531.168 213.627L472.59 185.534L353.879 126.333C350.257 124.527 346 127.161 346 131.208V490.819C346 492.874 347.156 494.755 348.991 495.681L469.934 556.803ZM519.372 437.552L550.84 453.66V254.531L478.928 219.992V417.846L519.372 437.552ZM610.637 438.798L579.169 454.921L579.169 256.499L648.357 223.256L648.357 420.403L610.637 438.798Z" fill="url(#paint0_linear_27_2)"/>
<path d="M671.478 180.978L634.148 199.199L480.665 126.28V93.937L671.478 180.978Z" fill="#D9D9D9"/>
<path d="M671.478 180.978L634.148 199.199L480.665 126.28V93.937L671.478 180.978Z" fill="url(#paint1_linear_27_2)"/>
<path d="M480.75 178.233L452.055 163.808L452.055 88.7728C452.055 85.1344 455.817 82.7142 459.128 84.2228L480.75 94.0749V178.233Z" fill="url(#paint2_linear_27_2)"/>
<path d="M156.513 866.75V675.625H175.901V696.8C181.584 689.467 188.734 683.417 197.351 678.65C205.968 673.883 217.013 671.5 230.488 671.5C243.78 671.5 255.468 674.662 265.551 680.987C275.726 687.312 283.609 695.837 289.201 706.562C294.884 717.287 297.726 729.204 297.726 742.312C297.726 752.029 296.076 761.196 292.776 769.812C289.568 778.337 284.984 785.854 279.026 792.362C273.068 798.871 265.963 803.958 257.713 807.625C249.463 811.292 240.343 813.125 230.351 813.125C218.068 813.125 207.526 810.833 198.726 806.25C189.926 801.575 182.638 795.433 176.863 787.825V866.75H156.513ZM226.776 794.287C236.493 794.287 245.109 792.179 252.626 787.962C260.143 783.654 266.009 777.65 270.226 769.95C274.534 762.158 276.688 752.946 276.688 742.312C276.688 731.679 274.534 722.467 270.226 714.675C265.918 706.883 260.005 700.879 252.488 696.662C245.063 692.446 236.493 690.337 226.776 690.337C217.059 690.337 208.443 692.446 200.926 696.662C193.409 700.879 187.497 706.883 183.188 714.675C178.972 722.467 176.863 731.679 176.863 742.312C176.863 752.946 178.972 762.158 183.188 769.95C187.497 777.65 193.409 783.654 200.926 787.962C208.443 792.179 217.059 794.287 226.776 794.287ZM391.411 813.125C377.386 813.125 365.011 810.192 354.286 804.325C343.561 798.458 335.173 790.254 329.123 779.712C323.073 769.079 320.048 756.75 320.048 742.725C320.048 732.55 321.744 723.108 325.136 714.4C328.619 705.692 333.477 698.129 339.711 691.712C346.036 685.296 353.369 680.346 361.711 676.862C370.144 673.287 379.311 671.5 389.211 671.5C399.752 671.5 409.148 673.379 417.398 677.137C425.648 680.896 432.523 686.121 438.023 692.812C443.615 699.504 447.602 707.387 449.986 716.462C452.461 725.446 453.102 735.162 451.911 745.612H341.086C340.627 755.512 342.461 764.175 346.586 771.6C350.711 778.933 356.761 784.662 364.736 788.788C372.711 792.912 382.198 794.975 393.198 794.975C400.44 794.975 407.59 793.737 414.648 791.262C421.798 788.787 427.986 785.258 433.211 780.675L443.111 796.487C438.619 800.154 433.44 803.271 427.573 805.837C421.798 808.312 415.794 810.146 409.561 811.338C403.419 812.529 397.369 813.125 391.411 813.125ZM342.048 728.7H431.011C430.552 716.325 426.748 706.654 419.598 699.687C412.54 692.721 402.319 689.237 388.936 689.237C376.011 689.237 365.286 692.721 356.761 699.687C348.327 706.654 343.423 716.325 342.048 728.7ZM476.28 809V792.912L552.868 694.187H477.38V675.625H577.755V691.575L501.718 790.437H578.855V809H476.28ZM605.455 809V792.912L682.043 694.187H606.555V675.625H706.93V691.575L630.893 790.437H708.03V809H605.455ZM802.692 813.125C789.126 813.125 776.98 809.917 766.255 803.5C755.53 797.083 747.097 788.512 740.955 777.787C734.813 766.971 731.742 755.146 731.742 742.312C731.742 732.687 733.484 723.612 736.967 715.087C740.542 706.562 745.538 699.046 751.955 692.537C758.372 685.937 765.888 680.804 774.505 677.137C783.122 673.379 792.517 671.5 802.692 671.5C816.351 671.5 828.497 674.708 839.13 681.125C849.855 687.542 858.288 696.158 864.43 706.975C870.572 717.7 873.642 729.479 873.642 742.312C873.642 751.846 871.855 760.921 868.28 769.537C864.797 778.062 859.892 785.625 853.567 792.225C847.242 798.733 839.726 803.867 831.017 807.625C822.401 811.292 812.959 813.125 802.692 813.125ZM802.692 794.287C812.409 794.287 821.026 792.179 828.542 787.962C836.059 783.654 841.926 777.65 846.142 769.95C850.451 762.158 852.605 752.946 852.605 742.312C852.605 731.679 850.451 722.467 846.142 714.675C841.926 706.883 836.059 700.879 828.542 696.662C821.026 692.446 812.409 690.337 802.692 690.337C792.976 690.337 784.359 692.446 776.842 696.662C769.326 700.879 763.413 706.883 759.105 714.675C754.888 722.467 752.78 731.679 752.78 742.312C752.78 752.946 754.934 762.158 759.242 769.95C763.551 777.65 769.417 783.654 776.842 787.962C784.359 792.179 792.976 794.287 802.692 794.287Z" fill="#E3E3E3"/>
</g>
<defs>
<linearGradient id="paint0_linear_27_2" x1="252.296" y1="614.684" x2="738.269" y2="493.905" gradientUnits="userSpaceOnUse">
<stop stop-color="#86DBAC"/>
<stop offset="0.46875" stop-color="#68C290"/>
<stop offset="1" stop-color="#41A26C"/>
</linearGradient>
<linearGradient id="paint1_linear_27_2" x1="465.376" y1="63.3581" x2="548.291" y2="260.945" gradientUnits="userSpaceOnUse">
<stop stop-color="#56B380"/>
<stop offset="0.84375" stop-color="#3B9362"/>
</linearGradient>
<linearGradient id="paint2_linear_27_2" x1="471.844" y1="153.331" x2="459.494" y2="181.558" gradientUnits="userSpaceOnUse">
<stop stop-color="#4FAA78"/>
<stop offset="1" stop-color="#60BB89" stop-opacity="0.1"/>
</linearGradient>
<clipPath id="clip0_27_2">
<rect width="977" height="962" fill="white"/>
</clipPath>
</defs>
</svg>
