<svg width="552" height="169" viewBox="0 0 552 169" fill="none" xmlns="http://www.w3.org/2000/svg">
<path d="M198 127.062V35H230.45C237.985 35 244.143 36.3036 248.927 38.9108C253.741 41.4881 257.305 44.9793 259.618 49.3846C261.932 53.7899 263.088 58.7046 263.088 64.1288C263.088 69.553 261.932 74.4828 259.618 78.918C257.336 83.3533 253.804 86.8895 249.02 89.5267C244.237 92.1339 238.11 93.4375 230.638 93.4375H207.379V83.5481H230.263C235.421 83.5481 239.563 82.694 242.69 80.9858C245.816 79.2776 248.082 76.9701 249.489 74.0632C250.927 71.1264 251.646 67.8149 251.646 64.1288C251.646 60.4428 250.927 57.1463 249.489 54.2394C248.082 51.3325 245.8 49.055 242.643 47.4067C239.485 45.7285 235.296 44.8894 230.075 44.8894H209.63V127.062H198Z" fill="#ECECEC"/>
<path d="M304.466 128.5C297.525 128.5 291.539 127.032 286.505 124.095C281.503 121.128 277.642 116.992 274.923 111.688C272.234 106.354 270.89 100.15 270.89 93.0779C270.89 86.0054 272.234 79.7721 274.923 74.3779C277.642 68.9537 281.425 64.7282 286.271 61.7014C291.148 58.6447 296.838 57.1163 303.34 57.1163C307.092 57.1163 310.796 57.7157 314.454 58.9144C318.112 60.1131 321.441 62.0611 324.442 64.7582C327.444 67.4253 329.835 70.9615 331.617 75.3668C333.399 79.7721 334.29 85.1963 334.29 91.6394V96.1346H278.768V86.9644H323.035C323.035 83.0686 322.223 79.5923 320.597 76.5356C319.003 73.4788 316.72 71.0664 313.751 69.2983C310.812 67.5302 307.342 66.6462 303.34 66.6462C298.932 66.6462 295.118 67.695 291.898 69.7928C288.709 71.8606 286.255 74.5577 284.536 77.8841C282.816 81.2106 281.957 84.7768 281.957 88.5827V94.6962C281.957 99.9106 282.894 104.331 284.77 107.957C286.677 111.553 289.319 114.295 292.695 116.183C296.072 118.041 299.995 118.97 304.466 118.97C307.373 118.97 309.999 118.581 312.344 117.801C314.72 116.992 316.767 115.794 318.487 114.205C320.206 112.587 321.535 110.579 322.473 108.182L333.165 111.059C332.039 114.535 330.148 117.592 327.49 120.229C324.833 122.836 321.551 124.874 317.643 126.342C313.735 127.781 309.343 128.5 304.466 128.5Z" fill="#ECECEC"/>
<path d="M343.779 127.062V118.97L384.671 68.624V67.9048H345.092V58.0154H398.926V66.4663L359.161 116.453V117.172H400.239V127.062H343.779Z" fill="#ECECEC"/>
<path d="M409.94 127.062V118.97L450.831 68.624V67.9048H411.253V58.0154H465.087V66.4663L425.321 116.453V117.172H466.4V127.062H409.94Z" fill="#ECECEC"/>
<path d="M505.362 128.5C498.859 128.5 493.154 127.017 488.246 124.05C483.369 121.083 479.555 116.932 476.804 111.598C474.084 106.264 472.724 100.03 472.724 92.8981C472.724 85.7058 474.084 79.4275 476.804 74.0632C479.555 68.699 483.369 64.5334 488.246 61.5666C493.154 58.5998 498.859 57.1163 505.362 57.1163C511.865 57.1163 517.554 58.5998 522.431 61.5666C527.339 64.5334 531.154 68.699 533.873 74.0632C536.624 79.4275 538 85.7058 538 92.8981C538 100.03 536.624 106.264 533.873 111.598C531.154 116.932 527.339 121.083 522.431 124.05C517.554 127.017 511.865 128.5 505.362 128.5ZM505.362 118.97C510.301 118.97 514.366 117.756 517.554 115.329C520.743 112.902 523.103 109.71 524.635 105.754C526.167 101.799 526.933 97.5131 526.933 92.8981C526.933 88.283 526.167 83.9826 524.635 79.9969C523.103 76.0111 520.743 72.7896 517.554 70.3322C514.366 67.8748 510.301 66.6462 505.362 66.6462C500.422 66.6462 496.358 67.8748 493.17 70.3322C489.981 72.7896 487.621 76.0111 486.089 79.9969C484.557 83.9826 483.791 88.283 483.791 92.8981C483.791 97.5131 484.557 101.799 486.089 105.754C487.621 109.71 489.981 112.902 493.17 115.329C496.358 117.756 500.422 118.97 505.362 118.97Z" fill="#ECECEC"/>
<rect x="16" y="18" width="127" height="127" rx="23" fill="#7B69B1"/>
<path fill-rule="evenodd" clip-rule="evenodd" d="M89 64H71V55C71 45.0589 62.9411 37 53 37C43.0589 37 35 45.0589 35 55C35 64.9411 43.0589 73 53 73H62V91H53C43.0589 91 35 99.0589 35 109C35 118.941 43.0589 127 53 127C62.9411 127 71 118.941 71 109V100H89V109C89 118.941 97.0589 127 107 127C116.941 127 125 118.941 125 109C125 99.0589 116.941 91 107 91H98V73H107C116.941 73 125 64.9411 125 55C125 45.0589 116.941 37 107 37C97.0589 37 89 45.0589 89 55V64ZM89 73V91H71V73H89ZM62 100V109C62 113.971 57.9706 118 53 118C48.0294 118 44 113.971 44 109C44 104.029 48.0294 100 53 100H62ZM98 100H107C111.971 100 116 104.029 116 109C116 113.971 111.971 118 107 118C102.029 118 98 113.971 98 109V100ZM62 64H53C48.0294 64 44 59.9706 44 55C44 50.0294 48.0294 46 53 46C57.9706 46 62 50.0294 62 55V64ZM98 64V55C98 50.0294 102.029 46 107 46C111.971 46 116 50.0294 116 55C116 59.9706 111.971 64 107 64H98Z" fill="#483978"/>
</svg>
