<svg width="160" height="169" viewBox="0 0 160 169" fill="none" xmlns="http://www.w3.org/2000/svg">
<rect x="16" y="21" width="127" height="127" rx="23" fill="#7B69B1"/>
<path fill-rule="evenodd" clip-rule="evenodd" d="M89 67H71V58C71 48.0589 62.9411 40 53 40C43.0589 40 35 48.0589 35 58C35 67.9411 43.0589 76 53 76H62V94H53C43.0589 94 35 102.059 35 112C35 121.941 43.0589 130 53 130C62.9411 130 71 121.941 71 112V103H89V112C89 121.941 97.0589 130 107 130C116.941 130 125 121.941 125 112C125 102.059 116.941 94 107 94H98V76H107C116.941 76 125 67.9411 125 58C125 48.0589 116.941 40 107 40C97.0589 40 89 48.0589 89 58V67ZM89 76V94H71V76H89ZM62 103V112C62 116.971 57.9706 121 53 121C48.0294 121 44 116.971 44 112C44 107.029 48.0294 103 53 103H62ZM98 103H107C111.971 103 116 107.029 116 112C116 116.971 111.971 121 107 121C102.029 121 98 116.971 98 112V103ZM62 67H53C48.0294 67 44 62.9706 44 58C44 53.0294 48.0294 49 53 49C57.9706 49 62 53.0294 62 58V67ZM98 67V58C98 53.0294 102.029 49 107 49C111.971 49 116 53.0294 116 58C116 62.9706 111.971 67 107 67H98Z" fill="#483978"/>
</svg>
