<svg width="1563" height="481" viewBox="0 0 1563 481" fill="none" xmlns="http://www.w3.org/2000/svg">
<path fill-rule="evenodd" clip-rule="evenodd" d="M79.087 113.132V375.487L143.01 407.792V145.01L79.087 113.132ZM160.376 443.556C163.457 445.113 167.097 442.874 167.097 439.422V351.749L191.647 363.711L236.837 385.895C240.47 387.678 244.726 387.668 248.35 385.868L290.774 364.79L328.63 346.328C330.692 345.323 332 343.23 332 340.936L331.999 123.688L269.98 153.409L242.928 166.438L212.441 151.767L162.634 127.881L61.6993 77.5451C58.6197 76.0093 55 78.249 55 81.6903V387.453C55 389.2 55.9833 390.799 57.5428 391.587L160.376 443.556ZM202.411 342.162L229.167 355.858V186.547L168.023 157.179V325.407L202.411 342.162ZM280.01 343.221L253.254 356.93L253.254 188.22L312.081 159.955L312.082 327.58L280.01 343.221Z" fill="url(#paint0_linear_25_113)"/>
<path d="M331.74 124.008L300 139.5L169.5 77.5V50L331.74 124.008Z" fill="#D9D9D9"/>
<path d="M331.74 124.008L300 139.5L169.5 77.5V50L331.74 124.008Z" fill="url(#paint1_linear_25_113)"/>
<path d="M169.573 121.674L145.174 109.408L145.174 46.7728C145.174 43.1344 148.937 40.7142 152.248 42.2228L169.573 50.1171V121.674Z" fill="url(#paint2_linear_25_113)"/>
<path d="M453.8 418V140H482V170.8C490.267 160.133 500.667 151.333 513.2 144.4C525.733 137.467 541.8 134 561.4 134C580.733 134 597.733 138.6 612.4 147.8C627.2 157 638.667 169.4 646.8 185C655.067 200.6 659.2 217.933 659.2 237C659.2 251.133 656.8 264.467 652 277C647.333 289.4 640.667 300.333 632 309.8C623.333 319.267 613 326.667 601 332C589 337.333 575.733 340 561.2 340C543.333 340 528 336.667 515.2 330C502.4 323.2 491.8 314.267 483.4 303.2V418H453.8ZM556 312.6C570.133 312.6 582.667 309.533 593.6 303.4C604.533 297.133 613.067 288.4 619.2 277.2C625.467 265.867 628.6 252.467 628.6 237C628.6 221.533 625.467 208.133 619.2 196.8C612.933 185.467 604.333 176.733 593.4 170.6C582.6 164.467 570.133 161.4 556 161.4C541.867 161.4 529.333 164.467 518.4 170.6C507.467 176.733 498.867 185.467 492.6 196.8C486.467 208.133 483.4 221.533 483.4 237C483.4 252.467 486.467 265.867 492.6 277.2C498.867 288.4 507.467 297.133 518.4 303.4C529.333 309.533 541.867 312.6 556 312.6ZM795.469 340C775.069 340 757.069 335.733 741.469 327.2C725.869 318.667 713.669 306.733 704.869 291.4C696.069 275.933 691.669 258 691.669 237.6C691.669 222.8 694.135 209.067 699.069 196.4C704.135 183.733 711.202 172.733 720.269 163.4C729.469 154.067 740.135 146.867 752.269 141.8C764.535 136.6 777.869 134 792.269 134C807.602 134 821.269 136.733 833.269 142.2C845.269 147.667 855.269 155.267 863.269 165C871.402 174.733 877.202 186.2 880.669 199.4C884.269 212.467 885.202 226.6 883.469 241.8H722.269C721.602 256.2 724.269 268.8 730.269 279.6C736.269 290.267 745.069 298.6 756.669 304.6C768.269 310.6 782.069 313.6 798.069 313.6C808.602 313.6 819.002 311.8 829.269 308.2C839.669 304.6 848.669 299.467 856.269 292.8L870.669 315.8C864.135 321.133 856.602 325.667 848.069 329.4C839.669 333 830.935 335.667 821.869 337.4C812.935 339.133 804.135 340 795.469 340ZM723.669 217.2H853.069C852.402 199.2 846.869 185.133 836.469 175C826.202 164.867 811.335 159.8 791.869 159.8C773.069 159.8 757.469 164.867 745.069 175C732.802 185.133 725.669 199.2 723.669 217.2ZM918.916 334V310.6L1030.32 167H920.516V140H1066.52V163.2L955.916 307H1068.12V334H918.916ZM1106.81 334V310.6L1218.21 167H1108.41V140H1254.41V163.2L1143.81 307H1256.01V334H1106.81ZM1393.7 340C1373.96 340 1356.3 335.333 1340.7 326C1325.1 316.667 1312.83 304.2 1303.9 288.6C1294.96 272.867 1290.5 255.667 1290.5 237C1290.5 223 1293.03 209.8 1298.1 197.4C1303.3 185 1310.56 174.067 1319.9 164.6C1329.23 155 1340.16 147.533 1352.7 142.2C1365.23 136.733 1378.9 134 1393.7 134C1413.56 134 1431.23 138.667 1446.7 148C1462.3 157.333 1474.56 169.867 1483.5 185.6C1492.43 201.2 1496.9 218.333 1496.9 237C1496.9 250.867 1494.3 264.067 1489.1 276.6C1484.03 289 1476.9 300 1467.7 309.6C1458.5 319.067 1447.56 326.533 1434.9 332C1422.36 337.333 1408.63 340 1393.7 340ZM1393.7 312.6C1407.83 312.6 1420.36 309.533 1431.3 303.4C1442.23 297.133 1450.76 288.4 1456.9 277.2C1463.16 265.867 1466.3 252.467 1466.3 237C1466.3 221.533 1463.16 208.133 1456.9 196.8C1450.76 185.467 1442.23 176.733 1431.3 170.6C1420.36 164.467 1407.83 161.4 1393.7 161.4C1379.56 161.4 1367.03 164.467 1356.1 170.6C1345.16 176.733 1336.56 185.467 1330.3 196.8C1324.16 208.133 1321.1 221.533 1321.1 237C1321.1 252.467 1324.23 265.867 1330.5 277.2C1336.76 288.4 1345.3 297.133 1356.1 303.4C1367.03 309.533 1379.56 312.6 1393.7 312.6Z" fill="#E3E3E3"/>
<defs>
<linearGradient id="paint0_linear_25_113" x1="-24.6722" y1="492.77" x2="388.53" y2="390.077" gradientUnits="userSpaceOnUse">
<stop stop-color="#86DBAC"/>
<stop offset="0.46875" stop-color="#68C290"/>
<stop offset="1" stop-color="#41A26C"/>
</linearGradient>
<linearGradient id="paint1_linear_25_113" x1="156.5" y1="24" x2="227" y2="192" gradientUnits="userSpaceOnUse">
<stop stop-color="#56B380"/>
<stop offset="0.84375" stop-color="#3B9362"/>
</linearGradient>
<linearGradient id="paint2_linear_25_113" x1="162" y1="100.5" x2="151.5" y2="124.5" gradientUnits="userSpaceOnUse">
<stop stop-color="#4FAA78"/>
<stop offset="1" stop-color="#60BB89" stop-opacity="0.1"/>
</linearGradient>
</defs>
</svg>
