<?xml version="1.0" standalone="no"?>
<!DOCTYPE svg PUBLIC "-//W3C//DTD SVG 20010904//EN"
 "http://www.w3.org/TR/2001/REC-SVG-20010904/DTD/svg10.dtd">
<svg version="1.0" xmlns="http://www.w3.org/2000/svg"
 width="500.000000pt" height="500.000000pt" viewBox="0 0 500.000000 500.000000"
 preserveAspectRatio="xMidYMid meet">
<metadata>
Created by potrace 1.14, written by Peter Selinger 2001-2017
</metadata>
<g transform="translate(0.000000,500.000000) scale(0.100000,-0.100000)"
fill="#000000" stroke="none">
<path d="M1910 4965 c-10 -12 -13 -97 -11 -383 1 -202 2 -375 2 -384 0 -10 3
-17 7 -16 14 3 42 -14 36 -23 -3 -5 2 -9 10 -9 23 0 19 -15 -4 -17 -13 -1 -18
2 -14 9 4 6 3 8 -4 4 -6 -3 -14 -1 -18 5 -4 8 -3 9 4 5 7 -4 12 -3 12 3 0 14
-18 23 -24 12 -14 -22 27 -61 57 -53 4 1 7 -2 7 -6 0 -16 48 -33 56 -20 5 7 3
8 -6 3 -8 -5 -11 -4 -7 2 4 6 -1 10 -10 9 -12 -1 -18 7 -19 23 -1 13 -8 27
-15 32 -11 7 -11 9 -1 9 7 0 15 -7 18 -15 4 -8 10 -12 15 -9 5 3 9 1 9 -5 0
-5 -6 -11 -12 -14 -7 -2 -10 -8 -6 -12 4 -4 19 2 34 14 25 20 51 20 39 0 -4
-5 -2 -9 4 -9 5 0 12 5 14 10 3 6 4 5 3 -2 -2 -7 -9 -14 -17 -14 -8 -1 -20 -2
-28 -3 -21 -2 -4 -15 24 -18 14 -2 25 1 25 7 0 6 7 6 19 -2 15 -9 17 -15 9
-25 -13 -16 -4 -17 23 -2 19 10 20 9 8 -13 -15 -30 -24 -38 -16 -15 6 15 4 16
-13 7 -16 -8 -20 -8 -18 2 2 8 -5 12 -17 10 -17 -2 -18 -1 -5 8 12 9 10 10 -9
5 -14 -4 -21 -3 -18 2 4 5 0 10 -8 10 -25 0 -17 -13 23 -32 20 -10 40 -20 45
-21 4 -1 10 -3 15 -4 4 -1 10 -2 15 -1 4 0 7 -4 7 -10 0 -5 5 -7 10 -4 6 3 13
-1 16 -10 15 -38 19 16 22 262 2 142 5 259 6 260 2 2 78 -33 171 -78 198 -95
330 -157 440 -209 44 -21 139 -66 210 -100 72 -34 207 -98 300 -142 94 -44
240 -114 325 -155 l155 -74 -105 -50 c-151 -72 -367 -176 -489 -235 l-105 -51
-46 23 c-25 12 -97 47 -160 77 -107 51 -201 96 -585 280 -82 40 -446 219 -807
399 -361 181 -664 328 -672 328 -9 0 -24 -8 -35 -19 -18 -18 -18 -78 -19
-1912 0 -1042 1 -1906 4 -1921 5 -23 22 -35 102 -76 858 -438 1209 -612 1230
-612 47 0 47 -1 52 585 l5 552 170 -82 c94 -46 278 -135 410 -200 304 -149
314 -153 356 -150 23 1 155 61 360 162 178 89 413 204 522 257 147 72 200 103
206 120 5 12 9 628 9 1368 l0 1345 -227 103 c-124 57 -253 116 -286 131 -33
15 -85 38 -115 52 -30 14 -318 145 -640 292 -322 147 -623 284 -670 305 -47
21 -114 51 -150 67 -180 83 -188 85 -210 58z m40 -739 c0 -2 -7 -7 -16 -10 -8
-3 -12 -2 -9 4 6 10 25 14 25 6z m7 -38 c-3 -8 -6 -5 -6 6 -1 11 2 17 5 13 3
-3 4 -12 1 -19z m50 -13 c0 -8 -4 -12 -9 -9 -4 3 -8 9 -8 15 0 5 4 9 8 9 5 0
9 -7 9 -15z m121 -40 c-3 -3 -9 2 -12 12 -6 14 -5 15 5 6 7 -7 10 -15 7 -18z
m35 -29 c9 1 15 -1 12 -6 -8 -13 -38 -5 -43 11 -2 9 -1 10 5 3 4 -6 16 -10 26
-8z m-685 -211 l392 -195 0 -1626 0 -1625 -392 198 -393 198 -3 1623 c-1 892
-1 1622 1 1622 2 0 180 -88 395 -195z m708 156 c0 -34 -2 -37 -18 -27 -20 12
-18 33 2 28 7 -2 10 3 7 12 -5 11 0 26 8 26 1 0 1 -17 1 -39z m259 -631 c50
-24 177 -85 284 -136 106 -52 196 -94 200 -94 5 0 8 -2060 2 -2094 0 -5 -7 -4
-13 2 -7 6 -168 87 -358 181 -190 95 -352 175 -360 180 -13 7 -15 136 -18
1050 l-2 1041 87 -44 c49 -24 129 -63 178 -86z m1515 8 c0 -84 0 -1694 0
-1886 l0 -103 -197 -96 c-109 -52 -198 -93 -199 -92 0 2 -7 -1 -15 -7 -13 -11
-305 -164 -312 -164 -2 0 -3 470 -3 1045 0 575 3 1045 6 1045 8 0 307 143 555
265 83 40 153 74 158 74 4 1 7 -36 7 -81z"/>
<path d="M2034 4124 c-18 -14 -18 -15 4 -4 12 6 22 13 22 15 0 8 -5 6 -26 -11z"/>
<path d="M2095 4080 c3 -5 8 -10 11 -10 2 0 4 5 4 10 0 6 -5 10 -11 10 -5 0
-7 -4 -4 -10z"/>
</g>
</svg>
