<svg width="1585" height="481" viewBox="0 0 1585 481" fill="none" xmlns="http://www.w3.org/2000/svg">
<path fill-rule="evenodd" clip-rule="evenodd" d="M79.087 113.132V375.487L143.01 407.792V145.01L79.087 113.132ZM160.376 443.556C163.457 445.113 167.097 442.874 167.097 439.422V351.749L191.647 363.711L236.837 385.895C240.47 387.678 244.726 387.668 248.35 385.868L290.774 364.79L328.63 346.328C330.692 345.323 332 343.23 332 340.936L331.999 123.688L269.98 153.409L242.928 166.438L212.441 151.767L162.634 127.881L61.6993 77.5451C58.6197 76.0093 55 78.249 55 81.6903V387.453C55 389.2 55.9833 390.799 57.5428 391.587L160.376 443.556ZM202.411 342.162L229.167 355.858V186.547L168.023 157.179V325.407L202.411 342.162ZM280.01 343.221L253.254 356.93L253.254 188.22L312.081 159.955L312.082 327.58L280.01 343.221Z" fill="url(#paint0_linear_103_2)"/>
<path d="M331.74 124.008L300 139.5L169.5 77.5V50L331.74 124.008Z" fill="#D9D9D9"/>
<path d="M331.74 124.008L300 139.5L169.5 77.5V50L331.74 124.008Z" fill="url(#paint1_linear_103_2)"/>
<path d="M169.572 121.674L145.174 109.408L145.174 46.7728C145.174 43.1344 148.936 40.7142 152.247 42.2228L169.572 50.1171V121.674Z" fill="url(#paint2_linear_103_2)"/>
<path d="M486.8 418V140H515V170.8C523.267 160.133 533.667 151.333 546.2 144.4C558.733 137.467 574.8 134 594.4 134C613.733 134 630.733 138.6 645.4 147.8C660.2 157 671.667 169.4 679.8 185C688.067 200.6 692.2 217.933 692.2 237C692.2 251.133 689.8 264.467 685 277C680.333 289.4 673.667 300.333 665 309.8C656.333 319.267 646 326.667 634 332C622 337.333 608.733 340 594.2 340C576.333 340 561 336.667 548.2 330C535.4 323.2 524.8 314.267 516.4 303.2V418H486.8ZM589 312.6C603.133 312.6 615.667 309.533 626.6 303.4C637.533 297.133 646.067 288.4 652.2 277.2C658.467 265.867 661.6 252.467 661.6 237C661.6 221.533 658.467 208.133 652.2 196.8C645.933 185.467 637.333 176.733 626.4 170.6C615.6 164.467 603.133 161.4 589 161.4C574.867 161.4 562.333 164.467 551.4 170.6C540.467 176.733 531.867 185.467 525.6 196.8C519.467 208.133 516.4 221.533 516.4 237C516.4 252.467 519.467 265.867 525.6 277.2C531.867 288.4 540.467 297.133 551.4 303.4C562.333 309.533 574.867 312.6 589 312.6ZM828.469 340C808.069 340 790.069 335.733 774.469 327.2C758.869 318.667 746.669 306.733 737.869 291.4C729.069 275.933 724.669 258 724.669 237.6C724.669 222.8 727.135 209.067 732.069 196.4C737.135 183.733 744.202 172.733 753.269 163.4C762.469 154.067 773.135 146.867 785.269 141.8C797.535 136.6 810.869 134 825.269 134C840.602 134 854.269 136.733 866.269 142.2C878.269 147.667 888.269 155.267 896.269 165C904.402 174.733 910.202 186.2 913.669 199.4C917.269 212.467 918.202 226.6 916.469 241.8H755.269C754.602 256.2 757.269 268.8 763.269 279.6C769.269 290.267 778.069 298.6 789.669 304.6C801.269 310.6 815.069 313.6 831.069 313.6C841.602 313.6 852.002 311.8 862.269 308.2C872.669 304.6 881.669 299.467 889.269 292.8L903.669 315.8C897.135 321.133 889.602 325.667 881.069 329.4C872.669 333 863.935 335.667 854.869 337.4C845.935 339.133 837.135 340 828.469 340ZM756.669 217.2H886.069C885.402 199.2 879.869 185.133 869.469 175C859.202 164.867 844.335 159.8 824.869 159.8C806.069 159.8 790.469 164.867 778.069 175C765.802 185.133 758.669 199.2 756.669 217.2ZM951.916 334V310.6L1063.32 167H953.516V140H1099.52V163.2L988.916 307H1101.12V334H951.916ZM1139.81 334V310.6L1251.21 167H1141.41V140H1287.41V163.2L1176.81 307H1289.01V334H1139.81ZM1426.7 340C1406.96 340 1389.3 335.333 1373.7 326C1358.1 316.667 1345.83 304.2 1336.9 288.6C1327.96 272.867 1323.5 255.667 1323.5 237C1323.5 223 1326.03 209.8 1331.1 197.4C1336.3 185 1343.56 174.067 1352.9 164.6C1362.23 155 1373.16 147.533 1385.7 142.2C1398.23 136.733 1411.9 134 1426.7 134C1446.56 134 1464.23 138.667 1479.7 148C1495.3 157.333 1507.56 169.867 1516.5 185.6C1525.43 201.2 1529.9 218.333 1529.9 237C1529.9 250.867 1527.3 264.067 1522.1 276.6C1517.03 289 1509.9 300 1500.7 309.6C1491.5 319.067 1480.56 326.533 1467.9 332C1455.36 337.333 1441.63 340 1426.7 340ZM1426.7 312.6C1440.83 312.6 1453.36 309.533 1464.3 303.4C1475.23 297.133 1483.76 288.4 1489.9 277.2C1496.16 265.867 1499.3 252.467 1499.3 237C1499.3 221.533 1496.16 208.133 1489.9 196.8C1483.76 185.467 1475.23 176.733 1464.3 170.6C1453.36 164.467 1440.83 161.4 1426.7 161.4C1412.56 161.4 1400.03 164.467 1389.1 170.6C1378.16 176.733 1369.56 185.467 1363.3 196.8C1357.16 208.133 1354.1 221.533 1354.1 237C1354.1 252.467 1357.23 265.867 1363.5 277.2C1369.76 288.4 1378.3 297.133 1389.1 303.4C1400.03 309.533 1412.56 312.6 1426.7 312.6Z" fill="#E3E3E3"/>
<defs>
<linearGradient id="paint0_linear_103_2" x1="-24.6722" y1="492.77" x2="388.53" y2="390.077" gradientUnits="userSpaceOnUse">
<stop stop-color="#86DBAC"/>
<stop offset="0.46875" stop-color="#68C290"/>
<stop offset="1" stop-color="#41A26C"/>
</linearGradient>
<linearGradient id="paint1_linear_103_2" x1="156.5" y1="24" x2="227" y2="192" gradientUnits="userSpaceOnUse">
<stop stop-color="#56B380"/>
<stop offset="0.84375" stop-color="#3B9362"/>
</linearGradient>
<linearGradient id="paint2_linear_103_2" x1="162" y1="100.5" x2="151.5" y2="124.5" gradientUnits="userSpaceOnUse">
<stop stop-color="#4FAA78"/>
<stop offset="1" stop-color="#60BB89" stop-opacity="0.1"/>
</linearGradient>
</defs>
</svg>
